<svg width="36" height="36" viewBox="0 0 36 36" fill="none" xmlns="http://www.w3.org/2000/svg">
<path d="M20.625 13.5C20.625 13.2016 20.7435 12.9155 20.9545 12.7045C21.1655 12.4935 21.4516 12.375 21.75 12.375H27C27.2984 12.375 27.5845 12.4935 27.7955 12.7045C28.0065 12.9155 28.125 13.2016 28.125 13.5V18.75C28.125 19.0484 28.0065 19.3345 27.7955 19.5455C27.5845 19.7565 27.2984 19.875 27 19.875C26.7016 19.875 26.4155 19.7565 26.2045 19.5455C25.9935 19.3345 25.875 19.0484 25.875 18.75V16.215L18.795 23.295C18.5841 23.5057 18.2981 23.624 18 23.624C17.7019 23.624 17.416 23.5057 17.205 23.295L13.5 19.59L9.79501 23.295C9.58175 23.4937 9.29968 23.6019 9.00823 23.5968C8.71678 23.5916 8.4387 23.4736 8.23258 23.2674C8.02646 23.0613 7.90839 22.7832 7.90325 22.4918C7.89811 22.2003 8.00629 21.9183 8.20501 21.705L12.705 17.205C12.916 16.9943 13.2019 16.876 13.5 16.876C13.7981 16.876 14.0841 16.9943 14.295 17.205L18 20.91L24.285 14.625H21.75C21.4516 14.625 21.1655 14.5065 20.9545 14.2955C20.7435 14.0845 20.625 13.7984 20.625 13.5Z" fill="#75797B"/>
</svg>
