<svg width="39" height="39" viewBox="0 0 39 39" fill="none" xmlns="http://www.w3.org/2000/svg">
<path d="M14.8086 14.3001C15.3611 13.8175 16.0176 13.4453 16.7424 13.226L17.1437 13.1203L17.4037 13.0716L17.6897 13.031L17.9822 13.0066L18.2812 12.9985H30.4687C31.8175 12.9983 33.1151 13.5142 34.0956 14.4403C35.0761 15.3664 35.6651 16.6326 35.7419 17.9791L35.75 18.2797V30.4672C35.7501 31.8162 35.234 33.114 34.3075 34.0946C33.3811 35.0751 32.1146 35.664 30.7677 35.7403L30.4687 35.7485H18.2812C16.9323 35.7485 15.6344 35.2324 14.6539 34.306C13.6733 33.3795 13.0845 32.113 13.0081 30.7662L13 30.4688V18.2813L13.0049 18.0392L13.0276 17.7305L13.0699 17.4201L13.1284 17.1178L13.2242 16.7555L13.3542 16.372L13.4956 16.0437L13.6289 15.7805L13.7816 15.5156L14.0189 15.163L14.1716 14.9631L14.391 14.7096L14.5665 14.5276L14.8086 14.3001ZM24.375 17.8751C24.0805 17.8751 23.7959 17.9817 23.574 18.1753C23.352 18.3689 23.2077 18.6363 23.1676 18.9281L23.1562 19.0938V23.1547H19.0937C18.7992 23.1547 18.5147 23.2614 18.2927 23.4549C18.0708 23.6485 17.9264 23.9159 17.8864 24.2077L17.875 24.3735C17.875 24.991 18.3332 25.4996 18.928 25.5808L19.0937 25.5922H23.1562V29.6563C23.1562 30.2738 23.6145 30.7841 24.2092 30.8637L24.375 30.8751C24.6695 30.8751 24.9541 30.7684 25.176 30.5748C25.398 30.3813 25.5423 30.1138 25.5824 29.8221L25.5937 29.6563V25.5922H29.6562C29.951 25.5921 30.2357 25.4853 30.4577 25.2913C30.6797 25.0974 30.8239 24.8296 30.8636 24.5376L30.875 24.3751C30.875 24.0806 30.7683 23.796 30.5748 23.5741C30.3812 23.3521 30.1138 23.2078 29.822 23.1677L29.6562 23.1563H25.5937V19.0938C25.5937 18.7993 25.4871 18.5148 25.2935 18.2928C25.0999 18.0709 24.8325 17.9265 24.5407 17.8865L24.375 17.8751ZM25.3207 6.8787L25.4052 7.16633L26.533 11.3718H18.2812C17.3742 11.3718 16.476 11.5505 15.638 11.8977C14.8 12.2449 14.0385 12.7537 13.3972 13.3952C12.7559 14.0367 12.2472 14.7982 11.9002 15.6363C11.5533 16.4744 11.3748 17.3726 11.375 18.2797V28.735C10.3183 28.6724 9.30484 28.2938 8.46599 27.6482C7.62713 27.0026 7.00163 26.1199 6.67062 25.1145L6.58612 24.8285L3.43199 13.0553C3.08262 11.7527 3.24485 10.3657 3.88541 9.17889C4.52598 7.99203 5.59633 7.09522 6.87699 6.67233L7.16624 6.58783L18.9377 3.4337C20.2404 3.08433 21.6273 3.24656 22.8142 3.88712C24.001 4.52768 24.8979 5.59804 25.3207 6.8787Z" fill="#FCFCFE"/>
</svg>
