<svg width="111" height="127" viewBox="0 0 111 127" fill="none" xmlns="http://www.w3.org/2000/svg">
<path d="M50.7957 44.0398C51.5142 44.0398 52.0966 43.657 52.0966 43.1848C52.0966 42.7126 51.5142 42.3298 50.7957 42.3298C50.0773 42.3298 49.4949 42.7126 49.4949 43.1848C49.4949 43.657 50.0773 44.0398 50.7957 44.0398Z" fill="#F19C94"/>
<path d="M62.6329 45.2414C63.3514 45.2414 63.9338 44.8586 63.9338 44.3865C63.9338 43.9143 63.3514 43.5315 62.6329 43.5315C61.9144 43.5315 61.332 43.9143 61.332 44.3865C61.332 44.8586 61.9144 45.2414 62.6329 45.2414Z" fill="#F19C94"/>
<path d="M34.4012 102.439L20.7405 102.071L14.9321 101.232L10.7799 100.091L7.6261 98.1591L5.49714 95.131L4.62793 91.2215L5.05666 86.4967L6.29293 81.4278L8.93579 74.5537L11.8194 68.7251L15.6927 63.6536L19.516 60.4402L23.3423 58.2353L28.5194 56.221L33.8638 54.699L38.7942 53.8282L39.9248 53.6985L41.0759 55.8107L42.5324 57.3274L43.9037 58.2459L45.9328 59.1088L48.564 59.6567L51.4359 59.3947L53.2682 58.4021L54.3753 57.2427L55.3825 55.3396L56.9947 55.9325L61.5492 57.3857L63.7575 58.4021L66.6235 60.0882L68.3178 61.3217L70.2295 62.9786L72.6756 65.8188L75.2921 69.8448L77.0275 73.4658L78.0289 76.2821H69.9623L62.2363 76.2213L56.4602 76.2821L55.3825 76.7586L54.4429 78.0688L49.8648 91.1129L46.8549 91.2559L43.8479 92.1796L41.7278 93.6593L40.7176 96.1024L40.5825 98.4238L40.8409 99.9458H36.4244L35.5082 100.314L34.8094 101.394L34.4012 102.439Z" fill="#113F36"/>
<path d="M48.0852 104.072L56.0843 79.0242C56.1224 78.8654 56.2458 78.4763 56.6304 78.1295C57.0239 77.7775 57.4615 77.6716 57.6377 77.6372H98.9925L98.2789 80.4588L90.2975 104.075H48.0852V104.072Z" fill="#0B3129"/>
<path d="M68.2004 89.1224L70.0974 91.3644L68.4823 94.7392L72.3556 93.1193L74.5345 94.7392L74.9691 91.5497L78.6867 89.3077L74.9427 88.5904L74.8428 85.5649L71.8946 88.5216L68.2004 89.1224Z" fill="white"/>
<path d="M36.6211 35.4425C36.6505 35.4769 36.6065 35.424 36.5976 35.416C36.58 35.3949 36.5624 35.3763 36.5477 35.3552C36.5037 35.3022 36.4626 35.2466 36.4215 35.1937C36.3246 35.0667 36.2365 34.9343 36.1513 34.7993C35.9369 34.4552 35.7637 34.0952 35.6374 33.7194C35.3261 32.7929 35.3026 31.803 35.5699 30.866C35.8371 29.9289 36.0162 29.7463 36.3657 29.2328C36.9148 28.4281 37.5491 27.6843 38.2832 27.012C39.0819 26.2841 39.9805 25.6489 40.9584 25.1248C41.1492 25.0242 41.3401 24.9262 41.5369 24.8336C41.7336 24.741 41.6896 24.7224 41.7219 24.6245C41.7542 24.5266 41.8041 24.3969 41.854 24.2857C41.9039 24.1745 41.8863 24.2116 41.9039 24.1719C41.9215 24.1322 41.9215 24.1322 41.9303 24.111C41.9392 24.0898 41.9392 24.0898 41.945 24.0792C41.9538 24.058 41.9333 24.1057 41.948 24.0713C41.9949 23.9707 42.0449 23.8728 42.0977 23.7748C42.2211 23.5419 42.3561 23.3169 42.503 23.0946C42.87 22.5414 43.3134 22.0305 43.8303 21.5858C45.2603 20.347 47.2219 19.7091 49.2011 19.8124C50.038 19.8574 50.8661 20.0294 51.6472 20.3047C51.8646 20.3814 52.076 20.4662 52.2933 20.5667C52.5106 20.6673 52.4695 20.6673 52.5634 20.67C52.7719 20.6779 52.9863 20.6488 53.1977 20.6435C55.3531 20.6038 57.5144 21.0538 59.4261 21.9537C59.5318 22.004 59.6257 22.0675 59.7491 22.049C59.8724 22.0305 59.9253 22.012 60.0163 21.9961C60.2042 21.9617 60.3951 21.9299 60.586 21.9061C61.0529 21.8452 61.5257 21.824 61.9984 21.8346C63.173 21.8637 64.33 22.139 65.3549 22.6578C66.1272 23.0496 66.7908 23.5631 67.4222 24.1163C67.7922 24.4392 68.1387 24.7833 68.4411 25.1618C68.7436 25.5403 68.8787 25.7494 69.1018 26.0406C70.0268 27.2397 71.3688 28.0496 72.8929 28.5181C73.4185 28.6796 73.9559 28.7987 74.5021 28.8913L74.3699 28.6002C73.8003 29.3413 73.1249 30.0189 72.3672 30.6039C71.7711 31.0645 71.1574 31.5092 70.482 31.8744C69.8066 32.2397 68.7377 32.6474 67.7775 32.7585C66.8173 32.8697 65.6838 32.7585 64.6971 32.4462C63.9542 32.208 63.2582 31.8612 62.6239 31.4404C62.5623 31.4006 62.4624 31.4059 62.4007 31.4404C60.7416 32.3244 58.8652 32.8538 56.9388 32.9518C55.2533 33.0365 53.5648 32.8009 51.9673 32.3191C50.3699 31.8374 50.8573 31.9486 50.3199 31.7183C49.7826 31.488 50.041 31.7077 49.9969 31.8374C49.4272 33.4785 48.3349 34.9422 46.8754 36.0487L47.2425 36.136C46.385 34.2858 44.5321 32.8723 42.3003 32.605C41.2461 32.478 40.1743 32.6262 39.2082 33.0285C38.2421 33.4308 37.7429 33.8332 37.1703 34.3996C36.8355 34.7305 36.5154 35.0931 36.2776 35.4875C36.0397 35.8819 36.5213 35.9137 36.6593 35.6887C36.8414 35.3896 37.0645 35.1222 37.2907 34.8787C37.7811 34.3546 38.3595 33.8994 39.0232 33.5605C40.788 32.6606 42.9611 32.8115 44.629 33.8199C46.2969 34.8284 46.3703 35.2678 46.8196 36.2419C46.8842 36.3848 47.0516 36.4325 47.1867 36.3292C48.7049 35.1805 49.8295 33.6479 50.4227 31.9433L50.0997 32.0624C51.2802 32.5706 52.5341 32.9491 53.8203 33.1609C55.7819 33.4864 57.8139 33.4256 59.7315 32.92C60.7445 32.6526 61.7195 32.2662 62.6269 31.7845H62.4037C63.8367 32.7373 65.6162 33.3038 67.4075 33.19C68.4558 33.1238 69.466 32.8353 70.3851 32.3827C71.3042 31.93 71.7888 31.5568 72.4289 31.0724C73.0691 30.588 74.0939 29.6537 74.7488 28.7987C75.4036 27.9437 74.7488 28.5287 74.6166 28.5075C73.4097 28.3064 72.2263 27.957 71.1956 27.3455C70.4409 26.8982 69.8301 26.3159 69.3309 25.6409C69.0372 25.2439 68.7465 24.8495 68.4059 24.4842C68.0653 24.1189 67.6248 23.7298 67.199 23.3857C66.1947 22.5731 65.026 21.9431 63.7104 21.6467C62.3743 21.3476 60.9677 21.3846 59.6316 21.6679L59.8019 21.689C58.0283 20.8288 56.0491 20.3365 54.0346 20.257C53.5442 20.2385 53.0538 20.2438 52.5634 20.2756L52.675 20.302C50.8338 19.3888 48.5522 19.148 46.5407 19.7038C44.5174 20.2623 42.8847 21.5832 41.8951 23.256C41.6455 23.6769 41.4253 24.1216 41.2755 24.5821L41.3753 24.463C39.308 25.4397 37.5315 26.8903 36.2511 28.6505C35.8488 29.201 35.4935 29.7675 35.2615 30.3975C34.9033 31.3768 34.8445 32.4382 35.0971 33.4441C35.3496 34.4499 35.7284 35.0561 36.3069 35.7284C36.8854 36.4007 36.5419 35.7972 36.6182 35.7284C36.6945 35.6596 36.6916 35.5325 36.6182 35.4478L36.6211 35.4425Z" fill="#231F20"/>
<path d="M41.6601 32.7532C41.669 31.9697 41.7629 31.1889 41.9362 30.4213C42.2269 29.1243 42.7349 27.8696 43.4573 26.7182C44.1797 25.5668 45.4042 24.1957 46.7197 23.2242C48.0353 22.2528 48.8928 21.8531 50.1055 21.3846C50.8632 21.0934 51.6531 20.8605 52.4547 20.6964C52.5105 20.6858 52.5663 20.6726 52.6221 20.662C52.8982 20.6091 52.7807 20.2253 52.5047 20.2782C51.7441 20.4264 50.9982 20.6329 50.2759 20.8923C49.0543 21.3317 47.9002 21.9087 46.8519 22.626C45.4864 23.5604 44.3118 24.7118 43.4015 26.022C42.5763 27.2105 41.9714 28.526 41.6132 29.8919C41.2549 31.2577 41.2461 31.6653 41.2226 32.5653C41.1991 33.4652 41.2226 32.6897 41.2197 32.7532C41.2197 33.01 41.6572 33.01 41.6601 32.7532ZM44.7112 33.5605C44.8404 32.8061 45.0459 32.0624 45.3132 31.3397C45.7771 30.0904 46.432 28.9019 47.263 27.8193C48.3642 26.3847 49.7855 25.1512 51.4152 24.2089C52.8952 23.3513 54.5397 22.7425 56.2546 22.3931C57.3088 22.1787 58.3894 22.0596 59.473 22.0543H59.6903C59.9751 22.0543 59.9751 21.6599 59.6903 21.6572C58.6772 21.6493 57.6641 21.7419 56.6686 21.9114C54.9684 22.2025 53.3181 22.7478 51.8175 23.526C50.0762 24.4286 48.5463 25.6435 47.3217 27.0808C46.3615 28.2058 45.6068 29.4657 45.0606 30.7971C44.7288 31.6071 44.4733 32.4435 44.3147 33.2932C44.3059 33.3461 44.2942 33.4017 44.2854 33.4573C44.2678 33.5632 44.3147 33.669 44.4381 33.7008C44.5614 33.7326 44.6906 33.669 44.7082 33.5632L44.7112 33.5605ZM62.665 31.7474C63.2993 31.2444 63.96 30.7309 64.4944 30.1407C65.0289 29.5504 64.7705 29.8495 64.7793 29.6669C64.7881 29.4842 64.3505 29.4128 64.3388 29.6669C64.3388 29.696 64.3476 29.6139 64.3417 29.6457C64.3359 29.6775 64.3212 29.6854 64.3388 29.6589C64.3564 29.6325 64.3094 29.7039 64.3006 29.7198C64.2448 29.7992 64.2301 29.8125 64.1714 29.8786C64.0158 30.048 63.8455 30.2069 63.6751 30.3604C63.3286 30.6727 62.9704 30.9745 62.6063 31.2683C62.2421 31.5621 62.4418 31.4033 62.3566 31.4694C62.1423 31.6388 62.4565 31.9168 62.6679 31.75L62.665 31.7474ZM36.2746 35.4822C35.5052 36.5939 35.0941 37.9491 35.1587 39.2594C35.2204 40.5167 35.7255 41.7898 36.577 42.7904C37.1409 43.4548 37.8662 44 38.7119 44.3521C39.7632 44.7888 40.926 44.9238 42.0683 44.7809C43.0168 44.6618 43.9418 44.3468 44.7141 43.8333C45.4864 43.3198 45.9974 42.7613 46.4349 42.0784C47.4363 40.514 47.6888 38.6347 47.3951 36.8665C47.1015 35.0984 47.3012 36.3742 47.2395 36.1307C47.1778 35.8872 46.752 35.9878 46.8137 36.2366C47.2454 37.9147 47.169 39.7464 46.3674 41.3266C45.5657 42.9069 45.5334 42.658 44.9109 43.1742C44.2824 43.6956 43.5248 44.0583 42.7026 44.2568C41.6866 44.503 40.5971 44.503 39.587 44.2277C38.6855 43.9815 37.875 43.513 37.2378 42.8857C36.6005 42.2583 35.8664 40.9799 35.6667 39.8682C35.4201 38.4918 35.7813 37.0333 36.5506 35.8316C37.32 34.6299 36.6182 35.7284 36.6534 35.6781C36.8032 35.461 36.4214 35.2599 36.2717 35.4769L36.2746 35.4822Z" fill="#231F20"/>
<path d="M42.0096 32.769C42.2064 32.9199 45.2985 35.4001 44.6672 39.1879C44.0505 42.8856 40.4445 44.45 40.1772 44.5611L43.0785 44.3653L44.7523 43.558L46.0561 42.2557L47.0017 40.3049L47.2924 38.1238L46.6199 35.4504L45.2545 33.9972L43.983 33.2587L42.6792 32.859L42.0096 32.7717V32.769Z" fill="#231F20" stroke="#231F20" stroke-width="0.0859049" stroke-miterlimit="10"/>
<path d="M39.9247 41.5755C41.1281 41.5755 42.1036 40.2719 42.1036 38.6638C42.1036 37.0558 41.1281 35.7522 39.9247 35.7522C38.7214 35.7522 37.7458 37.0558 37.7458 38.6638C37.7458 40.2719 38.7214 41.5755 39.9247 41.5755Z" fill="#231F20" stroke="#231F20" stroke-width="0.0859049" stroke-miterlimit="10"/>
<path d="M52.4636 36.6944C52.8365 36.3847 53.3857 36.1439 53.9319 36.1042C54.478 36.0644 55.3032 36.2815 55.7936 36.6944C56.0021 36.8691 56.3134 36.5885 56.1049 36.4138C55.5234 35.9268 54.7276 35.6489 53.9319 35.7071C53.1361 35.7653 52.6369 36.0115 52.1523 36.4138C51.6678 36.8162 52.2551 36.8665 52.4636 36.6944ZM61.4875 37.5256C62.0895 37.0385 62.9851 36.8532 63.7369 37.1709C64.4886 37.4885 64.2889 37.4859 64.4857 37.7188C64.6824 37.9517 64.6266 37.9014 64.6853 37.9994C64.7441 38.0973 64.7265 38.0682 64.7441 38.1026C64.7617 38.137 64.794 38.2058 64.7588 38.1291C64.8057 38.227 64.9056 38.2985 65.0289 38.2667C65.1523 38.2349 65.2286 38.1211 65.1816 38.0232C64.932 37.4859 64.471 37.0253 63.8749 36.7924C62.9557 36.4324 61.9074 36.6468 61.1733 37.2423C60.9619 37.4144 61.2731 37.6923 61.4846 37.5229L61.4875 37.5256Z" fill="#231F20"/>
<path d="M66.4032 32.994C66.3034 34.389 66.1771 35.7839 66.0303 37.1762C65.8864 38.5261 65.7484 39.8814 65.5575 41.2287C65.3931 42.388 65.1493 43.5394 64.885 44.6829C64.5826 45.9879 64.2126 47.2954 63.5724 48.5024C62.9323 49.7094 62.3332 50.3897 61.4787 51.1838C60.6242 51.9779 59.8607 52.4967 58.9034 52.9599C57.6054 53.5872 56.1431 53.9128 54.6689 53.8704C53.3739 53.8307 52.0995 53.5078 50.9366 52.9996C49.7738 52.4914 49.0543 52.0229 48.2262 51.3903C47.73 51.0117 47.2572 50.6041 46.8285 50.1621C46.7932 50.125 46.758 50.088 46.7227 50.0483C46.5407 49.8524 46.2323 50.133 46.4115 50.3288C46.7345 50.6809 47.0957 51.0038 47.4686 51.3135C48.238 51.9514 49.0808 52.5231 49.9881 52.9943C50.8955 53.4655 52.3315 54.0028 53.6118 54.1775C54.8921 54.3522 56.6423 54.2384 58.0547 53.746C59.2499 53.3305 60.3305 52.6925 61.2761 51.917C62.2216 51.1414 62.8031 50.4982 63.3757 49.6618C64.1627 48.513 64.6648 47.2266 65.026 45.919C65.3784 44.6459 65.6515 43.3436 65.8717 42.0466C66.0714 40.8713 66.1947 39.6881 66.3269 38.505C66.5001 36.9512 66.6587 35.3975 66.782 33.8384C66.9054 32.2794 66.8261 33.2746 66.8466 32.994C66.8642 32.7399 66.4238 32.7399 66.4061 32.994H66.4032Z" fill="#231F20"/>
<path d="M54.6704 39.7743C54.8044 39.2201 54.5367 38.6969 54.0724 38.6056C53.6081 38.5144 53.1231 38.8896 52.9891 39.4438C52.855 39.998 53.1227 40.5212 53.587 40.6125C54.0513 40.7037 54.5363 40.3284 54.6704 39.7743Z" fill="#231F20" stroke="#231F20" stroke-width="0.0859049" stroke-miterlimit="10"/>
<path d="M63.363 40.7901C63.497 40.2359 63.2293 39.7127 62.7651 39.6215C62.3008 39.5302 61.8157 39.9055 61.6817 40.4597C61.5476 41.0139 61.8153 41.5371 62.2796 41.6284C62.7439 41.7196 63.2289 41.3443 63.363 40.7901Z" fill="#231F20" stroke="#231F20" stroke-width="0.0859049" stroke-miterlimit="10"/>
<path d="M58.8624 39.6909C58.9622 40.1356 59.068 40.5776 59.1825 41.017C59.2765 41.3849 59.391 41.7528 59.4673 42.1261C59.5642 42.5946 59.623 43.071 59.7287 43.5369C59.7727 43.7354 59.8226 43.9551 59.7434 44.151C59.6641 44.3468 59.5143 44.4448 59.3381 44.4951C59.1619 44.5454 59.0562 44.4977 58.927 44.4951C58.7978 44.4924 58.6187 44.4845 58.466 44.4765C58.14 44.4633 57.8111 44.4527 57.4852 44.4395C57.1592 44.4262 57.2033 44.8259 57.4852 44.8365C57.7671 44.8471 58.1018 44.8603 58.4072 44.8709C58.7126 44.8815 59.0268 44.9212 59.3293 44.9053C59.6318 44.8895 59.7668 44.7492 59.9078 44.6248C60.0488 44.5004 60.2044 44.2171 60.2191 43.971C60.2338 43.7354 60.1662 43.4998 60.1163 43.2722C60.0605 43.0101 60.0194 42.7481 59.9753 42.4834C59.9019 42.0361 59.7874 41.6046 59.6729 41.1652C59.5584 40.7258 59.4057 40.1117 59.2853 39.5797C59.1649 39.0477 58.8037 39.4341 58.8595 39.6856L58.8624 39.6909ZM53.9144 46.4035C54.4753 47.637 55.876 48.4284 57.3618 48.2802C58.8477 48.132 57.9198 48.2008 58.1841 48.1134C58.4484 48.0261 58.3338 47.6396 58.0666 47.7296C56.8245 48.1478 55.3856 47.7693 54.6338 46.7767C53.8821 45.7841 54.4899 46.5756 54.4312 46.4697C54.3725 46.3638 54.3872 46.3876 54.3637 46.3479C54.3402 46.3082 54.349 46.3162 54.3402 46.3029C54.3255 46.2712 54.3578 46.3426 54.3402 46.2976C54.2961 46.1997 54.1934 46.1282 54.07 46.16C53.9467 46.1917 53.8703 46.3029 53.9173 46.4035H53.9144Z" fill="#231F20"/>
<path d="M44.4969 43.963C44.8728 44.7042 45.7155 46.1044 47.4011 47.322C49.0984 48.5475 50.8074 48.979 51.6913 49.1484C51.7736 49.0266 51.9174 48.8599 52.1524 48.7566C52.4313 48.6322 52.6956 48.664 53.1948 48.7328C53.8966 48.8281 54.3283 48.889 54.5368 48.9181C54.5955 48.9287 54.9303 48.9949 55.127 49.2887C55.2886 49.5269 55.2562 49.7678 55.2416 49.8419C55.2005 50.0589 55.0742 50.1966 54.9978 50.276C54.8334 50.4533 54.6425 50.5433 54.5368 50.583C54.3078 50.6121 54.0582 50.6307 53.788 50.6333C53.3328 50.636 52.7191 50.5962 52.076 50.4216C52.076 50.4216 51.5621 50.4454 51.615 49.8895C51.6062 49.7678 51.6003 49.6486 51.5915 49.5269C51.427 49.4951 51.2655 49.4607 51.1011 49.429C50.5666 49.3151 49.8589 49.1246 49.0749 48.7884C47.1603 47.9731 46.0591 46.8561 45.8447 46.6311C45.1958 45.9562 44.7318 45.2309 44.5644 44.9662C44.3647 44.6512 44.2091 44.3759 44.1034 44.1721C43.9801 44.0424 43.8567 43.9154 43.7363 43.7883C43.9889 43.8466 44.2443 43.9074 44.4969 43.9657V43.963Z" fill="#231F20" stroke="#231F20" stroke-width="0.0859049" stroke-miterlimit="10"/>
<path d="M55.3855 54.069C55.4061 54.556 55.3004 55.0378 55.0625 55.4772C54.8247 55.9166 55.0449 55.7419 55.1947 55.7683C57.1122 56.1019 58.9945 56.6127 60.7946 57.3009C63.0733 58.1718 65.2287 59.3232 67.1697 60.7128C68.6615 61.7822 70.0798 62.9839 71.2368 64.3524C72.6757 66.057 73.9443 67.8807 75.019 69.7918C76.085 71.6897 76.9571 73.6749 77.6237 75.7183C77.6913 75.9221 77.7559 76.1286 77.8175 76.335L78.029 76.0836C74.6843 76.073 71.3366 76.0651 67.992 76.0545C64.6473 76.0439 61.2997 76.0359 57.955 76.0253C57.3824 76.0253 56.8039 75.9751 56.2489 76.1312C55.6939 76.2874 55.0596 76.6659 54.6778 77.1556C54.2961 77.6453 54.3108 77.7935 54.1963 78.1403C54.0142 78.6988 53.8292 79.2573 53.6471 79.8184C53.3036 80.8692 52.957 81.9201 52.6135 82.9709C52.173 84.3129 51.7325 85.6549 51.292 86.9995C50.8516 88.3442 50.3494 89.8741 49.8767 91.3141C49.442 92.6349 49.0104 93.953 48.5758 95.2739C48.241 96.2903 47.9092 97.3067 47.5744 98.3231C47.41 98.8261 47.2455 99.3263 47.0811 99.8292C47.0752 99.8504 47.0664 99.8742 47.0605 99.8954L47.272 99.7498H37.417C37.0647 99.7498 36.7182 99.7366 36.3717 99.7948C36.0604 99.8478 35.7491 99.9404 35.4819 100.091C35.0825 100.314 34.8388 100.644 34.6978 101.044C34.5569 101.444 34.4805 101.867 34.4776 102.288L34.6978 102.09C32.8772 102.106 31.0566 102.092 29.2359 102.05C27.3125 102.005 25.3891 101.928 23.4686 101.817C21.5482 101.706 19.6541 101.563 17.7542 101.388C16.8439 101.304 15.9394 101.211 15.0409 101.052C14.3009 100.922 13.5697 100.758 12.8502 100.56C11.6756 100.237 10.501 99.8398 9.46443 99.2363C8.2399 98.5243 7.20625 97.5899 6.46332 96.4571C5.72038 95.3242 5.25054 94.0907 5.0303 92.8175C4.80125 91.4993 4.76895 90.1335 4.91578 88.8074C4.99506 88.0742 5.13014 87.3463 5.26816 86.621C5.40617 85.8958 5.59117 84.9879 5.78205 84.1779C5.97292 83.3679 6.29887 82.1662 6.61308 81.171C6.92728 80.1757 7.35014 78.9687 7.77006 77.8861C8.31625 76.4833 8.91824 75.0963 9.57014 73.7305C9.91371 73.0078 10.3013 72.3011 10.6243 71.5706C10.8387 71.0835 11.0648 70.6044 11.3086 70.1306C11.8812 69.0163 12.536 67.9337 13.2701 66.8987C14.1188 65.7049 15.0732 64.572 16.1332 63.5239C17.3343 62.3354 18.6674 61.2501 20.1093 60.2999C21.5511 59.3496 22.9812 58.6006 24.5287 57.9282C25.8589 57.3512 27.2332 56.8615 28.6222 56.4063C30.2285 55.8795 31.8436 55.3898 33.4968 54.9981C35.0179 54.6381 36.5567 54.3469 38.1101 54.1272C39.6635 53.9075 39.3287 53.9658 39.9395 53.9023C40.5503 53.8387 40.1333 53.8467 40.1509 53.7567C40.2126 53.4576 40.2772 53.1558 40.3389 52.8567C40.4916 52.1367 40.6413 51.4168 40.794 50.6968C40.9467 49.9768 41.1611 48.9525 41.3432 48.0816L41.8189 45.8185C41.8952 45.4506 41.9804 45.0827 42.0509 44.7147C42.1213 44.3468 42.0509 44.7041 42.0538 44.6989C42.1067 44.45 41.6809 44.3415 41.628 44.593C41.5663 44.8921 41.5017 45.1938 41.4401 45.4929C41.2874 46.2129 41.1376 46.9329 40.9849 47.6528C40.8028 48.5237 40.6178 49.3972 40.4358 50.268C40.2537 51.1388 40.1186 51.7768 39.9601 52.5311C39.8015 53.2855 39.8544 53.0288 39.8015 53.2776C39.7486 53.5264 39.734 53.5184 39.7251 53.6349C39.7163 53.7514 39.7251 53.6455 39.7222 53.6508L39.9336 53.5052C38.5417 53.6508 37.1528 53.8493 35.7814 54.1061C34.0401 54.4316 32.3222 54.8446 30.6337 55.3475C29.2036 55.7736 27.7794 56.2395 26.3846 56.7556C24.887 57.3089 23.4216 57.9362 22.0297 58.6826C20.444 59.5323 18.9552 60.5249 17.5927 61.6445C16.3359 62.6768 15.1936 63.8177 14.1687 65.0406C13.2731 66.1073 12.4714 67.2402 11.7666 68.4181C11.0619 69.5959 10.6449 70.443 10.1839 71.4938C9.85792 72.2349 9.46149 72.9549 9.11205 73.6881C8.76847 74.416 8.43665 75.1492 8.11951 75.8851C7.588 77.1212 7.10054 78.3732 6.66006 79.6384C6.34586 80.541 6.05514 81.4489 5.79673 82.3648C5.38855 83.8206 5.06847 85.2949 4.78951 86.7772C4.51935 88.2145 4.3226 89.6544 4.4107 91.1155C4.44887 91.7614 4.50467 92.4099 4.62506 93.0504C4.76601 93.8101 5.00387 94.5486 5.32689 95.2606C5.85252 96.4226 6.57197 97.4999 7.57038 98.3867C8.43665 99.1569 9.46149 99.7789 10.5715 100.226C11.9487 100.782 13.4199 101.171 14.8999 101.433C16.3799 101.695 16.7264 101.693 17.6455 101.78C18.5911 101.867 19.5396 101.947 20.4851 102.021C22.4497 102.169 24.4201 102.286 26.3905 102.365C28.2786 102.442 30.1697 102.487 32.0609 102.497C32.9389 102.503 33.8198 102.503 34.6978 102.495C34.8182 102.495 34.9181 102.405 34.9181 102.296C34.9181 101.947 34.9827 101.605 35.0855 101.269C35.1882 100.933 35.3409 100.658 35.6581 100.467C35.9752 100.277 36.1866 100.234 36.4774 100.187C36.7681 100.139 36.6154 100.163 36.7182 100.155C36.9501 100.139 37.188 100.155 37.417 100.155H47.272C47.3689 100.155 47.457 100.094 47.4834 100.009C47.5979 99.6651 47.7095 99.3184 47.824 98.9743L48.7138 96.2665C49.1249 95.0145 49.536 93.7598 49.9471 92.5078C50.414 91.0864 50.878 89.6677 51.3449 88.2463C51.7971 86.8672 52.2493 85.4881 52.7016 84.1117C53.1538 82.7353 53.4533 81.8248 53.8263 80.6813C54.0612 79.9693 54.2932 79.2546 54.5281 78.5426C54.5721 78.4102 54.6162 78.2805 54.6573 78.1482C54.9069 77.362 55.5324 76.7427 56.4163 76.5097C56.6336 76.4515 56.7774 76.4277 56.9595 76.4303C57.3706 76.4303 57.7817 76.4303 58.1928 76.433C59.0151 76.433 59.8373 76.4383 60.6595 76.4409C62.3216 76.4462 63.9866 76.4515 65.6486 76.4541C68.9757 76.4647 72.3028 76.4727 75.6269 76.4833C76.4286 76.4833 77.2302 76.4886 78.0348 76.4912C78.1787 76.4912 78.2844 76.3642 78.2463 76.2397C77.6384 74.2466 76.8367 72.3011 75.8559 70.435C74.7929 68.4154 73.5185 66.4858 72.0532 64.6832C71.7448 64.3047 71.4277 63.9315 71.1047 63.5636C70.8433 63.2671 70.5438 62.9918 70.2531 62.7165C69.5689 62.0733 68.8494 61.4645 68.0918 60.8928C66.186 59.4449 64.0688 58.2273 61.8077 57.285C59.9166 56.4962 57.9315 55.898 55.8936 55.5036C53.8556 55.1093 55.5118 55.4322 55.3209 55.3978L55.4531 55.6889C55.7232 55.186 55.8583 54.6381 55.8348 54.0796C55.826 53.8255 55.3855 53.8228 55.3943 54.0796L55.3855 54.069Z" fill="#231F20"/>
<path d="M12.0102 68.6246C10.9472 67.3461 10.1837 65.8585 9.74033 64.3153C8.97683 61.6658 9.24699 58.8097 10.5302 56.3242C11.8135 53.8388 12.6445 53.1929 14.1891 52.0203C15.7337 50.8477 14.3859 51.8721 14.4887 51.8006C14.5914 51.7292 14.5298 51.7715 14.5474 51.7583C14.5914 51.7265 14.5092 51.7847 14.565 51.745C14.6208 51.7053 14.656 51.6842 14.7001 51.6524C14.9086 51.4989 15.1053 51.3374 15.3226 51.1945C15.6016 51.0145 15.8923 50.853 16.1977 50.7101C16.7791 50.4401 17.3987 50.2707 18.036 50.1516C18.6732 50.0325 19.0872 49.9901 19.6217 50.0034C20.1561 50.0166 20.7875 50.1251 21.2309 50.4586C21.6743 50.7921 21.9356 51.4698 21.921 52.068C21.9063 52.6662 21.9092 52.3009 21.8916 52.4174C21.874 52.5338 21.8769 52.4862 21.874 52.5285C21.8681 52.6079 21.9004 52.4994 21.8681 52.5656C21.8006 52.6953 21.7272 52.8223 21.642 52.9441C21.3366 53.3835 20.9049 53.7461 20.391 53.9817C19.8772 54.2173 18.9551 54.339 18.2356 54.167C17.5162 53.9949 17.5045 53.9129 17.1579 53.7302C15.8835 53.0579 14.8587 52.0097 14.3213 50.7657C13.8456 49.6645 13.7193 48.4311 13.9748 47.2717C14.2038 46.2209 14.7441 45.2124 15.4959 44.4024C16.2476 43.5925 15.675 44.1986 15.7807 44.1139C16.001 43.9366 16.2799 43.7936 16.5383 43.6639C17.1256 43.3701 17.8157 43.1584 18.4588 43.1028C19.1019 43.0472 19.3956 43.1028 19.8537 43.1822C20.5878 43.3145 21.3072 43.5263 22.0149 43.746C23.5096 44.2119 24.9661 44.7704 26.3786 45.4136C27.236 45.8053 28.0876 46.2076 28.9422 46.6047C29.7556 46.9832 30.5132 47.4491 31.3589 47.7773C32.8624 48.3623 34.4687 48.7116 36.1014 48.8122C37.6254 48.9075 39.1759 48.5052 40.4063 47.6873C40.8409 47.3988 41.2344 47.0679 41.5809 46.6947C41.9274 46.3215 41.4517 46.2182 41.2696 46.4141C40.3387 47.4252 39.0379 48.1134 37.6019 48.3437C36.9852 48.4417 36.3715 48.4364 35.749 48.3861C34.915 48.3173 34.0899 48.1796 33.2823 47.9758C32.4102 47.7535 31.5175 47.4702 30.7305 47.06C30.3018 46.8376 29.8789 46.6073 29.4472 46.3929C29.0185 46.1785 28.5751 45.9853 28.1405 45.7841C26.5372 45.0377 24.9338 44.3124 23.2483 43.7301C21.5627 43.1478 21.827 43.2563 21.1017 43.0604C20.4821 42.891 19.8449 42.7455 19.1988 42.7005C17.9361 42.6131 16.6675 43.0313 15.6633 43.701C15.3373 43.918 15.0877 44.2171 14.8499 44.5136C14.4945 44.953 14.2038 45.4321 13.9718 45.9324C13.4462 47.0732 13.2994 48.3278 13.5079 49.5454C13.7633 51.033 14.612 52.4147 15.8864 53.3941C16.6793 54.0029 17.6278 54.5296 18.682 54.6408C20.0886 54.789 21.4364 54.1008 22.1206 53.0023C22.1882 52.8965 22.2704 52.772 22.3027 52.6503C22.3644 52.4174 22.3732 52.1553 22.3702 51.9171C22.3556 51.2686 22.1148 50.6042 21.551 50.1754C20.6025 49.4528 19.2135 49.5375 18.0712 49.7387C16.9289 49.9398 16.8144 50.0086 16.2241 50.2575C15.6133 50.5142 15.0466 50.8557 14.5386 51.2527C14.5151 51.2712 14.4916 51.2898 14.471 51.3056C14.4505 51.3215 14.4123 51.3559 14.4241 51.3453C14.4358 51.3348 14.3976 51.3639 14.3888 51.3718L14.2391 51.475C14.1422 51.5439 14.0482 51.6127 13.9513 51.6815C13.6752 51.888 13.411 52.1024 13.1555 52.3274C12.3949 52.9917 11.7166 53.7355 11.1352 54.5323C10.3687 55.5804 9.7785 56.7345 9.39382 57.9389C8.93866 59.3735 8.77421 60.8902 8.92398 62.3778C9.04731 63.6271 9.37914 64.8527 9.90183 66.0147C10.2601 66.814 10.6976 67.5843 11.2262 68.3016C11.3554 68.4763 11.4905 68.651 11.6285 68.8178C11.7665 68.9845 11.8194 68.9475 11.931 68.8892C12.0425 68.831 12.0807 68.704 12.0102 68.6166V68.6246ZM55.0418 55.5249C54.7805 56.2766 54.3635 57.0019 53.7909 57.6265C52.7631 58.7488 51.2831 59.4529 49.6592 59.5032C48.8869 59.527 48.1234 59.4185 47.3746 59.2597C46.6258 59.1009 45.8564 58.9076 45.1429 58.6138C44.1591 58.2115 43.2312 57.6662 42.453 56.9886C41.6749 56.311 40.7293 55.0908 40.2565 53.9499C39.7837 52.8091 40.1743 53.7461 40.1361 53.6455C40.048 53.4047 39.6222 53.5079 39.7103 53.7514C40.1802 55.0272 40.9672 56.2025 42.0155 57.1607C42.7291 57.8118 43.5806 58.3518 44.4851 58.77C45.2339 59.1168 46.0179 59.3656 46.8343 59.5509C47.6506 59.7361 48.3525 59.8685 49.1306 59.8976C50.8749 59.9664 52.5605 59.3762 53.7733 58.2406C54.5133 57.5471 55.0653 56.6922 55.4118 55.7843C55.4324 55.734 55.45 55.681 55.4676 55.6307C55.5528 55.3872 55.127 55.2813 55.0418 55.5249Z" fill="#113F36"/>
<path d="M36.2129 54.2383C36.6769 55.6598 37.4316 57.0097 38.43 58.1876C39.5429 59.4978 40.9554 60.5989 42.5558 61.3983C43.4514 61.8456 44.4087 62.203 45.3954 62.4438C46.5201 62.7191 47.6682 62.8224 48.8311 62.8171C49.7414 62.8118 50.6517 62.7509 51.5386 62.5683C52.4254 62.3856 53.7762 61.8906 54.7071 61.2395C56.3779 60.0748 57.4409 58.3226 57.7963 56.4591C57.8197 56.3374 57.8403 56.213 57.8579 56.0912C57.8755 55.9694 57.7463 55.8927 57.6377 55.8927C57.529 55.8927 57.4321 55.9853 57.4175 56.0912C57.4263 56.033 57.4145 56.1177 57.4116 56.1309C57.4086 56.1574 57.4028 56.1812 57.3998 56.2077L57.3646 56.3982C57.3352 56.5465 57.3 56.6947 57.2618 56.8429C57.1649 57.2109 57.0416 57.5735 56.8918 57.9255C56.4895 58.8678 55.8699 59.7334 55.0653 60.4375C54.2137 61.1866 53.1654 61.7292 52.029 62.0415C51.1333 62.2877 50.2054 62.3936 49.2745 62.4174C48.2379 62.4438 47.2043 62.4015 46.1853 62.2109C45.1722 62.0203 44.1914 61.7106 43.2664 61.2924C41.7512 60.6095 40.3857 59.6593 39.2757 58.5078C38.1363 57.3247 37.2671 55.9218 36.7356 54.4316C36.2041 52.9413 36.6681 54.2357 36.6358 54.1378C36.5565 53.8942 36.1307 53.9975 36.21 54.2436L36.2129 54.2383Z" fill="#231F20"/>
<path d="M46.5643 50.1859C46.438 50.2547 47.5245 53.431 50.1732 54.8154C50.787 55.1357 52.5166 55.898 55.3826 55.3395V54.069L53.7381 53.9922L50.8075 53.1611L49.1513 52.2796L47.9209 51.4141L46.9225 50.5512C46.7992 50.4003 46.5995 50.1647 46.5613 50.1859H46.5643Z" fill="#231F20" stroke="#231F20" stroke-width="0.0859049" stroke-miterlimit="10"/>
<path d="M34.4658 102.286V104.226C34.4658 104.332 34.5657 104.424 34.6861 104.424H35.0737C35.4407 104.424 35.8078 104.424 36.1749 104.422L37.9133 104.416C38.6827 104.416 39.452 104.411 40.2243 104.411C41.1523 104.411 42.0802 104.406 43.0111 104.403L46.2031 104.395C47.2661 104.393 48.5581 104.39 49.7357 104.385C50.9984 104.382 52.2611 104.377 53.5208 104.374C54.8364 104.371 56.1519 104.366 57.4675 104.364C58.8154 104.361 60.1632 104.356 61.5111 104.353C62.8707 104.35 64.2273 104.345 65.5869 104.342C66.9201 104.34 68.2562 104.334 69.5894 104.332C70.8785 104.329 72.1677 104.324 73.4538 104.321C74.6754 104.319 75.897 104.313 77.1186 104.311C78.2374 104.308 79.3592 104.305 80.478 104.3L83.4703 104.292C84.3219 104.292 85.1735 104.287 86.025 104.284C86.6975 104.284 87.3729 104.281 88.0454 104.279H89.4666C89.7133 104.274 89.9629 104.274 90.2096 104.274H90.3006C90.4004 104.274 90.4856 104.213 90.512 104.128C91.4018 101.5 92.2886 98.8685 93.1784 96.2401C94.0711 93.6011 94.9608 90.9647 95.8535 88.3257C96.7433 85.6973 97.6301 83.0663 98.5199 80.4378C98.743 79.7814 98.9633 79.1223 99.1865 78.4659C99.3274 78.0503 99.2599 77.5897 99.0661 77.1953C98.837 76.7295 98.4024 76.3801 97.8827 76.1895C97.3629 75.9989 97.6008 76.0916 97.4569 76.0863C96.9283 76.0678 96.3938 76.0863 95.8653 76.0863H78.0289C77.7441 76.0863 77.7441 76.4833 78.0289 76.4833H97.4715C97.4833 76.4833 97.3952 76.4674 97.4481 76.4833C97.5009 76.4992 97.5685 76.5098 97.6272 76.5283C98.0941 76.6686 98.4876 76.9836 98.6814 77.3939C98.7812 77.6056 98.8253 77.8359 98.8165 78.0662C98.8106 78.2674 98.746 78.4024 98.6638 78.6406C97.7799 81.2531 96.8989 83.8656 96.015 86.4782C95.1312 89.0907 94.2502 91.7032 93.3663 94.3157C92.4883 96.9124 91.6103 99.5064 90.7352 102.103C90.5179 102.744 90.3035 103.384 90.0862 104.025C90.1567 103.977 90.2272 103.927 90.2977 103.879H88.8088C88.2304 103.884 87.6489 103.884 87.0704 103.887C86.3011 103.887 85.5317 103.892 84.7594 103.892C83.8315 103.892 82.9035 103.898 81.9727 103.9L78.7807 103.908C77.6031 103.911 76.4256 103.914 75.2481 103.919C73.9854 103.921 72.7227 103.927 71.4629 103.929C70.1473 103.932 68.8318 103.937 67.5162 103.94C66.1684 103.943 64.8205 103.948 63.4727 103.951C62.1131 103.953 60.7564 103.959 59.3968 103.961C58.0636 103.964 56.7275 103.969 55.3943 103.972C54.1052 103.974 52.8161 103.98 51.5299 103.982C50.3083 103.985 49.0867 103.99 47.8651 103.993C46.7463 103.996 45.6246 103.998 44.5057 104.004L41.5134 104.011C40.515 104.014 39.8103 104.017 38.9587 104.019C38.2862 104.019 37.6108 104.022 36.9384 104.025C36.4656 104.025 35.9928 104.025 35.5171 104.027H34.6831L34.9034 104.226V102.286C34.9034 102.029 34.4629 102.029 34.4629 102.286H34.4658Z" fill="#231F20"/>
<path d="M92.4265 76.4542C93.3133 75.9937 94.1414 75.4378 94.902 74.8211C96.2058 73.7596 97.307 72.4865 98.0822 71.0651C99.107 69.191 99.5593 67.0841 99.4036 64.9983C99.3214 63.9157 99.0953 62.8278 98.7047 61.8008C98.229 60.5567 97.5096 59.3894 96.5758 58.3783C95.1633 56.8457 93.234 55.7128 91.0992 55.1834C89.1288 54.6964 87.0263 54.7335 85.05 55.1781C84.4979 55.3026 83.9547 55.4561 83.429 55.6519C82.9034 55.8478 82.0577 56.364 81.5115 56.8563C80.4866 57.7801 79.9346 58.9844 79.961 60.2947C79.9933 61.8325 80.7186 63.3148 81.7053 64.5457C82.921 66.0676 84.5596 67.2958 86.3714 68.2037C88.3653 69.2016 90.4443 70.0751 92.5851 70.7845C94.112 71.2927 95.6831 71.7003 97.1308 72.3832C98.9162 73.2276 100.493 74.387 101.841 75.7369C102.349 76.2478 102.757 76.7136 103.186 77.2907C103.615 77.8677 104.011 78.4791 104.358 79.1065C105.312 80.8323 105.917 82.7169 106.114 84.6359C106.319 86.629 106.093 88.646 105.465 90.5624C105.268 91.158 105.051 91.8012 104.733 92.3305C104.363 92.9552 103.955 93.564 103.515 94.1516C102.255 95.8298 100.71 97.3333 98.9573 98.6011C97.1513 99.9061 95.1105 100.957 92.9492 101.701C92.2356 101.947 91.5074 102.159 90.7674 102.339C90.4943 102.405 90.6088 102.789 90.8848 102.722C92.6555 102.291 94.3705 101.666 95.9767 100.87C98.1556 99.787 100.141 98.3814 101.82 96.7245C103.063 95.4989 104.143 94.1358 105.027 92.6773C105.359 92.1294 105.588 91.5365 105.796 90.9409C106.081 90.1283 106.293 89.2945 106.431 88.4528C106.78 86.3194 106.657 84.133 106.052 82.0472C105.585 80.4379 104.836 78.8921 103.852 77.4839C102.869 76.0757 101.718 74.9164 100.361 73.8761C99.016 72.8464 97.5125 72.018 95.8769 71.425C95.1516 71.1603 94.4086 70.9407 93.6716 70.7104C92.7172 70.4113 91.7687 70.091 90.8378 69.731C89.7043 69.2943 88.5914 68.8152 87.502 68.2964C86.6181 67.8755 85.7518 67.4388 84.9443 66.9041C83.3732 65.8612 81.9931 64.5165 81.1474 62.9204C80.4984 61.7002 80.1666 60.2629 80.6012 58.9394C80.6863 58.6774 80.7627 58.508 80.889 58.2883C81.0152 58.0686 81.2325 57.7536 81.4498 57.5127C81.6671 57.2719 82.1017 56.8828 82.4805 56.6234C82.8593 56.364 83.109 56.2052 83.4584 56.0675C83.8078 55.9299 83.4878 56.0569 83.4995 56.0516C83.5553 56.0305 83.4643 56.0649 83.5142 56.0463C83.5641 56.0278 83.5993 56.0146 83.6405 55.9987C83.7432 55.9616 83.8489 55.9246 83.9517 55.8928C84.2336 55.8002 84.5214 55.7181 84.8121 55.644C85.6285 55.4375 86.4654 55.3026 87.3111 55.2496C89.6339 55.104 91.9478 55.6017 93.9036 56.7504C95.4217 57.6398 96.6462 58.8892 97.5066 60.3185C97.9765 61.102 98.3171 61.912 98.5638 62.7749C99.0513 64.4742 99.1364 66.2715 98.7664 67.9946C98.3729 69.821 97.4861 71.5442 96.1999 72.9973C95.3219 73.9899 94.2735 74.8687 93.1224 75.5834C92.8259 75.7687 92.5205 75.9434 92.2062 76.1048C91.892 76.2663 92.1828 76.576 92.4294 76.4489L92.4265 76.4542ZM90.3005 104.271H93.5805C93.8654 104.271 93.8654 103.874 93.5805 103.874H90.3005C90.0156 103.874 90.0156 104.271 90.3005 104.271ZM47.0545 99.8928C46.664 101.137 46.2763 102.378 45.8858 103.622C45.83 103.797 45.7771 103.972 45.7213 104.146C45.645 104.393 46.0678 104.499 46.1471 104.252C46.5377 103.008 46.9253 101.767 47.3159 100.523C47.3717 100.348 47.4245 100.173 47.4803 99.9987C47.5361 99.824 47.1338 99.6467 47.0545 99.8928ZM41.0523 99.8928C40.9201 99.4217 40.8526 98.9744 40.8086 98.5059C40.7263 97.6006 40.7733 96.6821 41.017 95.798C41.3195 94.7207 41.9332 93.7414 42.8788 93.0187C43.795 92.3173 44.9373 91.8912 46.0913 91.6212C47.4245 91.3115 48.7841 91.1977 50.1525 91.3353C51.5209 91.4729 50.3728 91.2347 50.3728 91.1368C50.3728 91.0388 50.27 90.9515 50.1525 90.9383C48.8399 90.8059 47.5332 90.9039 46.2499 91.1765C45.09 91.4227 43.9418 91.8118 42.9728 92.447C41.8951 93.1537 41.1286 94.1384 40.7205 95.2792C40.3123 96.4201 40.2859 97.2194 40.3417 98.2015C40.3974 99.1835 40.4562 99.4137 40.6236 99.9961C40.694 100.242 41.1198 100.139 41.0493 99.8902L41.0523 99.8928Z" fill="#113F36"/>
<path d="M44.6701 91.666C44.4322 91.6157 44.1973 91.5628 43.9594 91.5125C43.3281 91.3775 42.6967 91.2399 42.0654 91.1049C41.158 90.909 40.2536 90.7158 39.3462 90.5199C38.4388 90.324 37.2231 90.0646 36.163 89.8343C35.0648 89.5988 33.9694 89.3632 32.8712 89.1276C31.8581 88.9106 30.845 88.6909 29.8319 88.4738C28.8188 88.2568 28.2139 88.1271 27.4034 87.9524C26.5929 87.7777 26.4314 87.7433 25.944 87.64C25.6709 87.5818 25.4007 87.5447 25.1217 87.505C24.1527 87.3674 23.1836 87.2298 22.2117 87.0921C22.1383 87.0815 22.0648 87.0709 21.9885 87.0604C21.871 87.0445 21.7536 87.0868 21.7183 87.198C21.6831 87.3092 21.7536 87.4256 21.871 87.4415C22.6815 87.5553 23.492 87.6718 24.3025 87.7856C24.7517 87.8491 25.2128 87.8888 25.6562 87.9841C26.0467 88.0688 26.4373 88.1509 26.8279 88.2356C27.5708 88.3944 28.3108 88.5559 29.0537 88.7147C30.0286 88.9238 31.0036 89.1329 31.9785 89.3447C33.065 89.5776 34.1544 89.8132 35.2409 90.0461C36.3216 90.279 37.4022 90.512 38.4829 90.7422C39.4372 90.9487 40.3916 91.1525 41.346 91.359C42.0536 91.5125 42.7643 91.6634 43.472 91.8169C44.1797 91.9704 44.1562 91.9678 44.4998 92.0392C44.8433 92.1107 44.5291 92.0445 44.5467 92.0498C44.8228 92.1081 44.9402 91.7269 44.6642 91.666H44.6701Z" fill="#231F20"/>
<path d="M25.4272 87.7698C25.5887 87.1901 25.7473 86.6078 25.9088 86.0281L27.054 81.875L28.4371 76.8564C28.8365 75.4112 29.2329 73.966 29.6323 72.5234C30.0316 71.0808 30.0375 71.1258 30.2108 70.4217C30.384 69.7177 30.2166 70.4032 30.2196 70.3926C30.2871 70.1438 29.8643 70.0379 29.7938 70.2867C29.6323 70.8664 29.4737 71.4487 29.3122 72.0284L28.167 76.1815L26.7839 81.2001C26.3845 82.6453 25.9881 84.0905 25.5887 85.5331C25.3949 86.2319 25.1835 86.9307 25.0102 87.6348C24.837 88.3388 25.0043 87.6533 25.0014 87.6639C24.9339 87.9127 25.3567 88.0186 25.4272 87.7698ZM65.672 76.245C65.6485 75.6256 65.6251 75.0089 65.6016 74.3895C65.5634 73.4075 65.5282 72.4281 65.49 71.4461C65.4812 71.2185 65.4724 70.9935 65.4636 70.7658C65.4547 70.5382 65.0143 70.5091 65.0231 70.7658C65.0466 71.3852 65.0701 72.002 65.0935 72.6213C65.1317 73.6034 65.167 74.5827 65.2051 75.5647C65.2139 75.7924 65.2228 76.0174 65.2316 76.245C65.2404 76.4726 65.6808 76.5017 65.672 76.245ZM10.4187 104.395H12.8325C13.7017 104.395 14.5709 104.395 15.4431 104.398C16.5032 104.398 17.5662 104.4 18.6262 104.403C19.6863 104.406 20.952 104.406 22.1148 104.408C23.2924 104.408 24.4728 104.411 25.6504 104.414C26.7457 104.414 27.8381 104.416 28.9334 104.419C29.8584 104.419 30.7834 104.419 31.7084 104.422C32.6334 104.424 33.0386 104.422 33.7023 104.422C34.0165 104.422 34.3336 104.43 34.6478 104.422C34.962 104.414 34.6743 104.422 34.6889 104.422C34.8005 104.422 34.9209 104.332 34.9092 104.223C34.8534 103.638 34.7947 103.053 34.7389 102.468C34.6831 101.883 34.6772 102.307 34.5774 102.278C34.4217 102.233 34.269 102.188 34.1134 102.143C33.9578 102.098 33.9636 102.095 33.8814 102.092C33.7258 102.087 33.5701 102.092 33.4145 102.092H28.7366C28.2756 102.092 27.8146 102.106 27.3536 102.092C26.9689 102.082 26.5812 102.039 26.1966 102.013C25.3538 101.955 24.5081 101.896 23.6653 101.838C22.7315 101.775 21.8006 101.706 20.8697 101.629L18.3326 101.423C17.898 101.388 17.4546 101.325 17.017 101.325H16.5413C16.2565 101.325 16.2565 101.722 16.5413 101.722C16.8262 101.722 16.9612 101.711 17.1697 101.727C17.3782 101.743 17.6014 101.761 17.8187 101.78C18.6351 101.846 19.4543 101.912 20.2707 101.979C21.2133 102.055 22.1559 102.132 23.1015 102.196C24.5022 102.293 25.9 102.405 27.3007 102.487C27.5973 102.505 27.8997 102.489 28.1963 102.489H33.714C33.7669 102.489 33.8227 102.495 33.8785 102.489C33.9343 102.484 33.8961 102.489 33.902 102.489C33.8609 102.508 33.8227 102.471 33.8932 102.497C33.9636 102.524 33.9783 102.521 34.0194 102.534L34.4599 102.661L34.2984 102.471C34.3542 103.056 34.4129 103.641 34.4687 104.226L34.6889 104.027H32.2751C31.4059 104.027 30.5367 104.027 29.6646 104.025C28.6045 104.025 27.5415 104.022 26.4814 104.019C25.4213 104.017 24.1557 104.017 22.9928 104.014C21.8153 104.014 20.6348 104.011 19.4573 104.009C18.2797 104.006 17.2696 104.006 16.1743 104.003C15.2493 104.003 14.3243 104.003 13.3993 104.001C12.4743 103.998 12.069 104.001 11.4054 104.001C11.0912 104.001 10.774 103.993 10.4598 104.001C10.1456 104.009 10.4334 104.001 10.4187 104.001C10.1339 104.001 10.1339 104.398 10.4187 104.398V104.395Z" fill="#231F20"/>
<path d="M15.4109 104.197L16.333 101.394L21.9387 101.918L26.414 102.227L30.9274 102.256L34.3103 102.225L34.6538 103.027L34.6861 104.228H26.3464L15.4109 104.197Z" fill="#231F20" stroke="#231F20" stroke-width="0.0859049" stroke-miterlimit="10"/>
</svg>
