<svg width="106" height="109" viewBox="0 0 106 109" fill="none" xmlns="http://www.w3.org/2000/svg">
<g clip-path="url(#clip0_487_2084)">
<path d="M120.729 84.5884C111.926 86.2122 102.845 86.2122 94.0415 84.5884C82.604 82.3176 68.6248 76.6405 66.0832 64.1509C63.5415 51.6613 67.354 25.5468 50.8332 15.328C34.3123 5.10927 55.9165 21.0051 55.9165 39.1718V65.2863" stroke="#0B3129" stroke-width="2" stroke-linecap="round" stroke-linejoin="round"/>
<path d="M61 69.8281C61 69.8281 34.3125 48.2552 24.1458 35.7656C13.9792 23.276 10.1667 1.70312 7.625 1.70312C6.35417 1.70312 7.40896 23.0603 19.0625 43.7135C31.2371 65.2865 53.985 86.4847 68.625 93.1042" stroke="#0B3129" stroke-width="2" stroke-linecap="round" stroke-linejoin="round"/>
<path d="M120.729 107.297C120.729 107.297 46.7538 98.2135 21.604 103.891C1.27068 108.432 1.27068 107.297 1.27068 105.026C1.27068 101.62 45.7498 90.2656 77.5207 93.6719" stroke="#0B3129" stroke-width="2" stroke-linecap="round" stroke-linejoin="round"/>
<path d="M11.4373 77.7761H3.81234C3.81234 81.992 5.68681 86.0351 9.02339 89.0162C12.36 91.9972 16.8854 93.672 21.604 93.672H29.229C29.229 89.4561 27.3545 85.4129 24.0179 82.4319C20.6814 79.4509 16.156 77.7761 11.4373 77.7761Z" stroke="#0B3129" stroke-width="2" stroke-linecap="round" stroke-linejoin="round"/>
<path d="M11.4373 82.3176L33.0415 95.9426" stroke="#0B3129" stroke-width="2" stroke-linecap="round" stroke-linejoin="round"/>
<path d="M69.896 57.3386H77.521C82.2396 57.3386 86.765 55.6639 90.1016 52.6828C93.4382 49.7018 95.3127 45.6586 95.3127 41.4428H87.6877C82.969 41.4428 78.4436 43.1175 75.1071 46.0986C71.7705 49.0796 69.896 53.1228 69.896 57.3386Z" stroke="#0B3129" stroke-width="2" stroke-linecap="round" stroke-linejoin="round"/>
<path d="M87.6875 45.9844L66.0833 59.6094" stroke="#0B3129" stroke-width="2" stroke-linecap="round" stroke-linejoin="round"/>
<path d="M37.2607 30.0886H29.229V30.452C29.229 33.9692 30.7928 37.3423 33.5765 39.8294C36.3602 42.3164 40.1356 43.7136 44.0723 43.7136H52.104V43.3503C52.104 41.6087 51.7201 39.8842 50.9741 38.2753C50.2282 36.6663 49.1348 35.2043 47.7565 33.9729C46.3782 32.7414 44.7418 31.7646 42.941 31.0981C41.1401 30.4316 39.2099 30.0886 37.2607 30.0886Z" stroke="#0B3129" stroke-width="2" stroke-linecap="round" stroke-linejoin="round"/>
<path d="M37.4894 35.198L55.9165 45.9845" stroke="#0B3129" stroke-width="2" stroke-linecap="round" stroke-linejoin="round"/>
<path d="M63.7485 25.4392L70.9258 22.094C74.3986 20.4584 77.0047 17.6603 78.1739 14.3121C79.3431 10.9639 78.9801 7.33818 77.1643 4.22851L76.9762 3.90638L69.8553 7.22536C66.365 8.85215 63.7409 11.6511 62.5604 15.0064C61.3799 18.3618 61.7396 21.9987 63.5604 25.1171L63.7485 25.4392Z" stroke="#0B3129" stroke-width="2" stroke-linecap="round" stroke-linejoin="round"/>
<path d="M72.2979 11.8423L61.5466 29.0211" stroke="#0B3129" stroke-width="2" stroke-linecap="round" stroke-linejoin="round"/>
<path d="M21.8086 25.4355L28.9859 22.0903C32.4586 20.4548 35.0648 17.6567 36.234 14.3084C37.4031 10.9602 37.0401 7.33452 35.2244 4.22485L35.0363 3.90271L27.9153 7.2217C26.1871 8.0272 24.6534 9.12895 23.4017 10.464C22.1501 11.7991 21.205 13.3414 20.6205 15.0028C20.036 16.6642 19.8234 18.4122 19.995 20.1469C20.1666 21.8817 20.7189 23.5693 21.6205 25.1134L21.8086 25.4355Z" stroke="#0B3129" stroke-width="2" stroke-linecap="round" stroke-linejoin="round"/>
<path d="M30.3604 11.8423L19.6091 29.0211" stroke="#0B3129" stroke-width="2" stroke-linecap="round" stroke-linejoin="round"/>
<path d="M9.09075 56.0203L1.42871 58.1721L1.55066 58.5187C2.73117 61.8741 5.3552 64.673 8.8455 66.2998C12.3358 67.9266 16.4065 68.248 20.162 67.1933L27.824 65.0414L27.7021 64.6948C27.1176 63.0334 26.1725 61.4911 24.9208 60.1561C23.6692 58.821 22.1355 57.7192 20.4072 56.9137C18.679 56.1082 16.7901 55.6147 14.8485 55.4614C12.9068 55.3081 10.9503 55.498 9.09075 56.0203Z" stroke="#0B3129" stroke-width="2" stroke-linecap="round" stroke-linejoin="round"/>
<path d="M11.0183 60.8357L35.5835 66.4219" stroke="#0B3129" stroke-width="2" stroke-linecap="round" stroke-linejoin="round"/>
</g>
<defs>
<clipPath id="clip0_487_2084">
<rect width="122" height="109" fill="white" transform="matrix(-1 0 0 1 122 0)"/>
</clipPath>
</defs>
</svg>
