<svg width="28" height="28" viewBox="0 0 28 28" fill="none" xmlns="http://www.w3.org/2000/svg">
<path d="M21.7417 18.2818L23.7442 12.2742C25.4936 7.02607 26.3682 4.40201 24.9831 3.01686C23.598 1.63172 20.9739 2.5064 15.7258 4.25577L9.71822 6.25829C5.48248 7.67021 3.36461 8.37616 2.76278 9.4114C2.19024 10.3962 2.19024 11.6126 2.76277 12.5974C3.36461 13.6326 5.48248 14.3386 9.71822 15.7505C10.3983 15.9772 10.7384 16.0906 11.0226 16.2808C11.2981 16.4652 11.5347 16.7019 11.7191 16.9773C11.9094 17.2616 12.0228 17.6016 12.2495 18.2818C13.6614 22.5175 14.3673 24.6353 15.4026 25.2372C16.3874 25.8097 17.6037 25.8097 18.5886 25.2372C19.6238 24.6353 20.3298 22.5175 21.7417 18.2818Z" stroke="white" stroke-width="1.5"/>
<path d="M20.7544 7.24587L15.8422 12.104" stroke="white" stroke-width="1.5" stroke-linecap="round"/>
</svg>
